<svg xmlns="http://www.w3.org/2000/svg" viewBox="0 0 209.76 228.85"><title>profile</title><g id="Layer_2" data-name="Layer 2"><g id="Layer_3" data-name="Layer 3"><path d="M86.89,127.32,81,126.58V125H77.11v-1.76l-3.19-.73Q58.23,112.2,50.6,98.64A45.09,45.09,0,0,1,45,69.82l6.14-23.91L49.58,30.36l7.51-13,7-9.39L84.39,0A135.35,135.35,0,0,1,114,8.87,116.64,116.64,0,0,1,140.14,24.5q10.68,10,13.19,22.88a97.34,97.34,0,0,1,1.37,26.69,116.57,116.57,0,0,0-3.87,15.55A32.47,32.47,0,0,1,144,104.29l-3.86.73-10.7,11.44-3.41.59v1.76a175.53,175.53,0,0,1-19,6.09A81.07,81.07,0,0,1,86.89,127.32ZM55.72,64.83V59.55l-2.5-2.64-.69,6.16L55,65.71Zm28.67,39.46v-1.62l3.41-1.17L93,98.27l5.23,1.62,3.87-5,6.14,2.49,2-3.37,3.87,3.37a3.1,3.1,0,0,0,1.14-4.18c-.77-1.71.45-2.56,3.64-2.56l2.27,4.25h2.28l2.5-4.25h5V78.47h3.18V71.73l-.91-4.26.91-17.16A23.19,23.19,0,0,0,130.69,42a34.81,34.81,0,0,0-7.16-7.55l-2.28-.73L105.78,23.47l-15.7-.59-13.88,4-4.55,2.64-1.37,6h-2.5A73.09,73.09,0,0,1,61.18,50a23.84,23.84,0,0,0-3,15.69A84.86,84.86,0,0,0,64,81.19a36.39,36.39,0,0,1,3.76,16.2l9.33,1.76,1.36-.88v1.62l-1.36,4.4ZM99.86,7.92,84.39,3.67,83,7.92l20.48,2.79.91-1.18ZM131,30.36V24.5q-3-2.79-6.38-5.87a21.29,21.29,0,0,0-8.19-4.55V12.32L104.41,9.53l-.91,1.18a111.49,111.49,0,0,0,11,5.79,15.38,15.38,0,0,1,7.85,8L126,30.36Z"/><path d="M188.88,228.85q-.65-16.77-11.94-30.8a164.23,164.23,0,0,0-26.12-20.24,72.75,72.75,0,0,1-23.54-23.89L110,161.68l-1.31,3.12L107,162l-2.46-9.26-12,8.46L94.28,164l-4.36,6-5.16,11.7L74.42,185l-1,13.18L60.61,201l.24,8.26-10-1.38q-2,5.44,2.6,8.61t-3.24,8.7l-8.3-4.77L38.18,223,0,224.67,5.35,192.3l5-5-1.88-3.07a365,365,0,0,1,24.75-32.68A164.75,164.75,0,0,1,63.77,124l10.53-5.59L76,121.17l6.37-4.49,1.89,3.06,6-2.42q36.82-.33,63.91,14.47t40.05,43.77l15.49,48.82ZM182,196.68l5.66,9.21,7,1.69-5.48-11.53-6.95-1.7Z"/></g></g></svg>